<?xml version="1.0" standalone="no"?>
<!DOCTYPE svg PUBLIC "-//W3C//DTD SVG 20010904//EN"
 "http://www.w3.org/TR/2001/REC-SVG-20010904/DTD/svg10.dtd">
<svg version="1.0" xmlns="http://www.w3.org/2000/svg"
 width="900.000000pt" height="822.000000pt" viewBox="0 0 900.000000 822.000000"
 preserveAspectRatio="xMidYMid meet">
<metadata>
Created by potrace 1.10, written by Peter Selinger 2001-2011
</metadata>
<g transform="translate(0.000000,822.000000) scale(0.100000,-0.100000)"
fill="#000000" stroke="none">
<path d="M1005 7586 c-146 -25 -245 -104 -306 -246 -20 -47 -24 -70 -23 -155
1 -101 7 -121 59 -214 26 -47 102 -113 165 -144 l65 -32 3440 0 c3390 0 3441
0 3485 20 45 19 107 61 146 100 59 57 114 189 114 273 0 67 -29 160 -67 219
-70 106 -159 163 -286 182 -113 16 -6693 13 -6792 -3z"/>
<path d="M1554 6059 c-53 -5 -111 -18 -138 -29 -72 -32 -160 -121 -198 -198
-30 -62 -32 -74 -32 -172 0 -98 2 -110 32 -172 23 -46 52 -84 93 -122 64 -59
105 -82 179 -99 29 -6 609 -12 1645 -16 l1600 -6 3 -344 c1 -242 -1 -348 -9
-357 -9 -11 -289 -14 -1633 -16 l-1621 -3 -65 -32 c-81 -40 -149 -109 -191
-193 -31 -61 -33 -71 -33 -176 -1 -88 3 -116 17 -137 9 -14 17 -31 17 -37 0
-19 70 -104 113 -137 65 -50 115 -71 200 -82 112 -16 3543 -15 3658 0 149 20
250 95 322 239 l32 65 3 794 c2 443 -1 828 -6 871 -12 99 -50 178 -118 245
-78 77 -138 101 -275 114 -140 13 -3458 13 -3595 0z"/>
<path d="M7045 6055 c-83 -17 -158 -59 -214 -121 -61 -66 -86 -119 -100 -211
-8 -50 -11 -468 -11 -1385 0 -722 -4 -1319 -8 -1325 -6 -10 -566 -13 -2617
-15 -2556 -3 -2611 -3 -2655 -22 -101 -44 -189 -132 -235 -236 -28 -63 -28
-227 0 -290 61 -140 165 -225 306 -249 93 -16 5590 -16 5675 0 80 15 134 42
194 96 46 41 110 124 110 142 0 4 8 23 18 42 16 32 17 131 17 1659 l0 1625
-33 67 c-38 76 -127 166 -195 196 -39 17 -159 44 -183 41 -5 -1 -36 -7 -69
-14z"/>
<path d="M2315 1461 c-141 -11 -235 -66 -309 -185 -83 -132 -86 -264 -11 -414
25 -48 92 -116 150 -150 103 -60 -10 -57 2365 -57 2390 0 2237 -4 2343 58 189
112 255 348 152 544 -33 63 -120 147 -175 169 -8 3 -31 14 -50 23 -32 15 -214
16 -2205 17 -1193 1 -2210 -2 -2260 -5z"/>
</g>
</svg>
